<?xml version="1.0" encoding="utf-8" standalone="no"?>
<!DOCTYPE svg PUBLIC "-//W3C//DTD SVG 1.1//EN"
  "http://www.w3.org/Graphics/SVG/1.1/DTD/svg11.dtd">
<svg xmlns:xlink="http://www.w3.org/1999/xlink" width="460.8pt" height="345.6pt" viewBox="0 0 460.8 345.6" xmlns="http://www.w3.org/2000/svg" version="1.1">
 <metadata>
  <rdf:RDF xmlns:dc="http://purl.org/dc/elements/1.1/" xmlns:cc="http://creativecommons.org/ns#" xmlns:rdf="http://www.w3.org/1999/02/22-rdf-syntax-ns#">
   <cc:Work>
    <dc:type rdf:resource="http://purl.org/dc/dcmitype/StillImage"/>
    <dc:date>2024-02-07T20:36:20.644414</dc:date>
    <dc:format>image/svg+xml</dc:format>
    <dc:creator>
     <cc:Agent>
      <dc:title>Matplotlib v3.7.2, https://matplotlib.org/</dc:title>
     </cc:Agent>
    </dc:creator>
   </cc:Work>
  </rdf:RDF>
 </metadata>
 <defs>
  <style type="text/css">*{stroke-linejoin: round; stroke-linecap: butt}</style>
 </defs>
 <g id="figure_1">
  <g id="patch_1">
   <path d="M 0 345.6 
L 460.8 345.6 
L 460.8 0 
L 0 0 
z
" style="fill: #ffffff"/>
  </g>
  <g id="axes_1">
   <g id="patch_2">
    <path d="M 102.414782 291.04 
L 444.6 291.04 
L 444.6 73.464 
L 102.414782 73.464 
z
" style="fill: #ffffff"/>
   </g>
   <g id="patch_3">
    <path d="M 146.527883 281.150182 
L 117.968655 281.150182 
L 117.968655 265.00354 
L 146.527883 265.00354 
z
" clip-path="url(#pfb755cbfd5)" style="fill: #0000ff"/>
   </g>
   <g id="patch_4">
    <path d="M 146.527883 260.966879 
L 128.748539 260.966879 
L 128.748539 244.820237 
L 146.527883 244.820237 
z
" clip-path="url(#pfb755cbfd5)" style="fill: #808080"/>
   </g>
   <g id="patch_5">
    <path d="M 146.527883 240.783577 
L 130.797705 240.783577 
L 130.797705 224.636935 
L 146.527883 224.636935 
z
" clip-path="url(#pfb755cbfd5)" style="fill: #008000"/>
   </g>
   <g id="patch_6">
    <path d="M 146.527883 220.600275 
L 132.334995 220.600275 
L 132.334995 204.453633 
L 146.527883 204.453633 
z
" clip-path="url(#pfb755cbfd5)" style="fill: #008000"/>
   </g>
   <g id="patch_7">
    <path d="M 146.527883 200.416972 
L 132.616196 200.416972 
L 132.616196 184.27033 
L 146.527883 184.27033 
z
" clip-path="url(#pfb755cbfd5)" style="fill: #ff0000"/>
   </g>
   <g id="patch_8">
    <path d="M 146.527883 180.23367 
L 162.726267 180.23367 
L 162.726267 164.087028 
L 146.527883 164.087028 
z
" clip-path="url(#pfb755cbfd5)" style="fill: #008000"/>
   </g>
   <g id="patch_9">
    <path d="M 146.527883 160.050367 
L 165.977048 160.050367 
L 165.977048 143.903725 
L 146.527883 143.903725 
z
" clip-path="url(#pfb755cbfd5)" style="fill: #0000ff"/>
   </g>
   <g id="patch_10">
    <path d="M 146.527883 139.867065 
L 173.925859 139.867065 
L 173.925859 123.720423 
L 146.527883 123.720423 
z
" clip-path="url(#pfb755cbfd5)" style="fill: #808080"/>
   </g>
   <g id="patch_11">
    <path d="M 146.527883 119.683763 
L 179.813399 119.683763 
L 179.813399 103.537121 
L 146.527883 103.537121 
z
" clip-path="url(#pfb755cbfd5)" style="fill: #008000"/>
   </g>
   <g id="patch_12">
    <path d="M 146.527883 99.50046 
L 429.046126 99.50046 
L 429.046126 83.353818 
L 146.527883 83.353818 
z
" clip-path="url(#pfb755cbfd5)" style="fill: #ff0000"/>
   </g>
   <g id="matplotlib.axis_1">
    <g id="xtick_1">
     <g id="line2d_1">
      <defs>
       <path id="m216a4bc0f8" d="M 0 0 
L 0 3.5 
" style="stroke: #000000; stroke-width: 0.8"/>
      </defs>
      <g>
       <use xlink:href="#m216a4bc0f8" x="146.527883" y="291.04" style="stroke: #000000; stroke-width: 0.8"/>
      </g>
     </g>
     <g id="text_1">
      <!-- 0.0 -->
      <g transform="translate(136.102883 308.776719) scale(0.15 -0.15)">
       <defs>
        <path id="ArialMT-30" d="M 266 2259 
Q 266 3072 433 3567 
Q 600 4063 929 4331 
Q 1259 4600 1759 4600 
Q 2128 4600 2406 4451 
Q 2684 4303 2865 4023 
Q 3047 3744 3150 3342 
Q 3253 2941 3253 2259 
Q 3253 1453 3087 958 
Q 2922 463 2592 192 
Q 2263 -78 1759 -78 
Q 1097 -78 719 397 
Q 266 969 266 2259 
z
M 844 2259 
Q 844 1131 1108 757 
Q 1372 384 1759 384 
Q 2147 384 2411 759 
Q 2675 1134 2675 2259 
Q 2675 3391 2411 3762 
Q 2147 4134 1753 4134 
Q 1366 4134 1134 3806 
Q 844 3388 844 2259 
z
" transform="scale(0.015625)"/>
        <path id="ArialMT-2e" d="M 581 0 
L 581 641 
L 1222 641 
L 1222 0 
L 581 0 
z
" transform="scale(0.015625)"/>
       </defs>
       <use xlink:href="#ArialMT-30"/>
       <use xlink:href="#ArialMT-2e" x="55.615234"/>
       <use xlink:href="#ArialMT-30" x="83.398438"/>
      </g>
     </g>
    </g>
    <g id="xtick_2">
     <g id="line2d_2">
      <g>
       <use xlink:href="#m216a4bc0f8" x="202.058906" y="291.04" style="stroke: #000000; stroke-width: 0.8"/>
      </g>
     </g>
     <g id="text_2">
      <!-- 0.5 -->
      <g transform="translate(191.633906 308.776719) scale(0.15 -0.15)">
       <defs>
        <path id="ArialMT-35" d="M 266 1200 
L 856 1250 
Q 922 819 1161 601 
Q 1400 384 1738 384 
Q 2144 384 2425 690 
Q 2706 997 2706 1503 
Q 2706 1984 2436 2262 
Q 2166 2541 1728 2541 
Q 1456 2541 1237 2417 
Q 1019 2294 894 2097 
L 366 2166 
L 809 4519 
L 3088 4519 
L 3088 3981 
L 1259 3981 
L 1013 2750 
Q 1425 3038 1878 3038 
Q 2478 3038 2890 2622 
Q 3303 2206 3303 1553 
Q 3303 931 2941 478 
Q 2500 -78 1738 -78 
Q 1113 -78 717 272 
Q 322 622 266 1200 
z
" transform="scale(0.015625)"/>
       </defs>
       <use xlink:href="#ArialMT-30"/>
       <use xlink:href="#ArialMT-2e" x="55.615234"/>
       <use xlink:href="#ArialMT-35" x="83.398438"/>
      </g>
     </g>
    </g>
    <g id="xtick_3">
     <g id="line2d_3">
      <g>
       <use xlink:href="#m216a4bc0f8" x="257.589929" y="291.04" style="stroke: #000000; stroke-width: 0.8"/>
      </g>
     </g>
     <g id="text_3">
      <!-- 1.0 -->
      <g transform="translate(247.164929 308.776719) scale(0.15 -0.15)">
       <defs>
        <path id="ArialMT-31" d="M 2384 0 
L 1822 0 
L 1822 3584 
Q 1619 3391 1289 3197 
Q 959 3003 697 2906 
L 697 3450 
Q 1169 3672 1522 3987 
Q 1875 4303 2022 4600 
L 2384 4600 
L 2384 0 
z
" transform="scale(0.015625)"/>
       </defs>
       <use xlink:href="#ArialMT-31"/>
       <use xlink:href="#ArialMT-2e" x="55.615234"/>
       <use xlink:href="#ArialMT-30" x="83.398438"/>
      </g>
     </g>
    </g>
    <g id="xtick_4">
     <g id="line2d_4">
      <g>
       <use xlink:href="#m216a4bc0f8" x="313.120953" y="291.04" style="stroke: #000000; stroke-width: 0.8"/>
      </g>
     </g>
     <g id="text_4">
      <!-- 1.5 -->
      <g transform="translate(302.695953 308.776719) scale(0.15 -0.15)">
       <use xlink:href="#ArialMT-31"/>
       <use xlink:href="#ArialMT-2e" x="55.615234"/>
       <use xlink:href="#ArialMT-35" x="83.398438"/>
      </g>
     </g>
    </g>
    <g id="xtick_5">
     <g id="line2d_5">
      <g>
       <use xlink:href="#m216a4bc0f8" x="368.651976" y="291.04" style="stroke: #000000; stroke-width: 0.8"/>
      </g>
     </g>
     <g id="text_5">
      <!-- 2.0 -->
      <g transform="translate(358.226976 308.776719) scale(0.15 -0.15)">
       <defs>
        <path id="ArialMT-32" d="M 3222 541 
L 3222 0 
L 194 0 
Q 188 203 259 391 
Q 375 700 629 1000 
Q 884 1300 1366 1694 
Q 2113 2306 2375 2664 
Q 2638 3022 2638 3341 
Q 2638 3675 2398 3904 
Q 2159 4134 1775 4134 
Q 1369 4134 1125 3890 
Q 881 3647 878 3216 
L 300 3275 
Q 359 3922 746 4261 
Q 1134 4600 1788 4600 
Q 2447 4600 2831 4234 
Q 3216 3869 3216 3328 
Q 3216 3053 3103 2787 
Q 2991 2522 2730 2228 
Q 2469 1934 1863 1422 
Q 1356 997 1212 845 
Q 1069 694 975 541 
L 3222 541 
z
" transform="scale(0.015625)"/>
       </defs>
       <use xlink:href="#ArialMT-32"/>
       <use xlink:href="#ArialMT-2e" x="55.615234"/>
       <use xlink:href="#ArialMT-30" x="83.398438"/>
      </g>
     </g>
    </g>
    <g id="xtick_6">
     <g id="line2d_6">
      <g>
       <use xlink:href="#m216a4bc0f8" x="424.182999" y="291.04" style="stroke: #000000; stroke-width: 0.8"/>
      </g>
     </g>
     <g id="text_6">
      <!-- 2.5 -->
      <g transform="translate(413.757999 308.776719) scale(0.15 -0.15)">
       <use xlink:href="#ArialMT-32"/>
       <use xlink:href="#ArialMT-2e" x="55.615234"/>
       <use xlink:href="#ArialMT-35" x="83.398438"/>
      </g>
     </g>
    </g>
    <g id="text_7">
     <!-- SHAP Values -->
     <g transform="translate(228.752313 326.494687) scale(0.15 -0.15)">
      <defs>
       <path id="ArialMT-53" d="M 288 1472 
L 859 1522 
Q 900 1178 1048 958 
Q 1197 738 1509 602 
Q 1822 466 2213 466 
Q 2559 466 2825 569 
Q 3091 672 3220 851 
Q 3350 1031 3350 1244 
Q 3350 1459 3225 1620 
Q 3100 1781 2813 1891 
Q 2628 1963 1997 2114 
Q 1366 2266 1113 2400 
Q 784 2572 623 2826 
Q 463 3081 463 3397 
Q 463 3744 659 4045 
Q 856 4347 1234 4503 
Q 1613 4659 2075 4659 
Q 2584 4659 2973 4495 
Q 3363 4331 3572 4012 
Q 3781 3694 3797 3291 
L 3216 3247 
Q 3169 3681 2898 3903 
Q 2628 4125 2100 4125 
Q 1550 4125 1298 3923 
Q 1047 3722 1047 3438 
Q 1047 3191 1225 3031 
Q 1400 2872 2139 2705 
Q 2878 2538 3153 2413 
Q 3553 2228 3743 1945 
Q 3934 1663 3934 1294 
Q 3934 928 3725 604 
Q 3516 281 3123 101 
Q 2731 -78 2241 -78 
Q 1619 -78 1198 103 
Q 778 284 539 648 
Q 300 1013 288 1472 
z
" transform="scale(0.015625)"/>
       <path id="ArialMT-48" d="M 513 0 
L 513 4581 
L 1119 4581 
L 1119 2700 
L 3500 2700 
L 3500 4581 
L 4106 4581 
L 4106 0 
L 3500 0 
L 3500 2159 
L 1119 2159 
L 1119 0 
L 513 0 
z
" transform="scale(0.015625)"/>
       <path id="ArialMT-41" d="M -9 0 
L 1750 4581 
L 2403 4581 
L 4278 0 
L 3588 0 
L 3053 1388 
L 1138 1388 
L 634 0 
L -9 0 
z
M 1313 1881 
L 2866 1881 
L 2388 3150 
Q 2169 3728 2063 4100 
Q 1975 3659 1816 3225 
L 1313 1881 
z
" transform="scale(0.015625)"/>
       <path id="ArialMT-50" d="M 494 0 
L 494 4581 
L 2222 4581 
Q 2678 4581 2919 4538 
Q 3256 4481 3484 4323 
Q 3713 4166 3852 3881 
Q 3991 3597 3991 3256 
Q 3991 2672 3619 2267 
Q 3247 1863 2275 1863 
L 1100 1863 
L 1100 0 
L 494 0 
z
M 1100 2403 
L 2284 2403 
Q 2872 2403 3119 2622 
Q 3366 2841 3366 3238 
Q 3366 3525 3220 3729 
Q 3075 3934 2838 4000 
Q 2684 4041 2272 4041 
L 1100 4041 
L 1100 2403 
z
" transform="scale(0.015625)"/>
       <path id="ArialMT-20" transform="scale(0.015625)"/>
       <path id="ArialMT-56" d="M 1803 0 
L 28 4581 
L 684 4581 
L 1875 1253 
Q 2019 853 2116 503 
Q 2222 878 2363 1253 
L 3600 4581 
L 4219 4581 
L 2425 0 
L 1803 0 
z
" transform="scale(0.015625)"/>
       <path id="ArialMT-61" d="M 2588 409 
Q 2275 144 1986 34 
Q 1697 -75 1366 -75 
Q 819 -75 525 192 
Q 231 459 231 875 
Q 231 1119 342 1320 
Q 453 1522 633 1644 
Q 813 1766 1038 1828 
Q 1203 1872 1538 1913 
Q 2219 1994 2541 2106 
Q 2544 2222 2544 2253 
Q 2544 2597 2384 2738 
Q 2169 2928 1744 2928 
Q 1347 2928 1158 2789 
Q 969 2650 878 2297 
L 328 2372 
Q 403 2725 575 2942 
Q 747 3159 1072 3276 
Q 1397 3394 1825 3394 
Q 2250 3394 2515 3294 
Q 2781 3194 2906 3042 
Q 3031 2891 3081 2659 
Q 3109 2516 3109 2141 
L 3109 1391 
Q 3109 606 3145 398 
Q 3181 191 3288 0 
L 2700 0 
Q 2613 175 2588 409 
z
M 2541 1666 
Q 2234 1541 1622 1453 
Q 1275 1403 1131 1340 
Q 988 1278 909 1158 
Q 831 1038 831 891 
Q 831 666 1001 516 
Q 1172 366 1500 366 
Q 1825 366 2078 508 
Q 2331 650 2450 897 
Q 2541 1088 2541 1459 
L 2541 1666 
z
" transform="scale(0.015625)"/>
       <path id="ArialMT-6c" d="M 409 0 
L 409 4581 
L 972 4581 
L 972 0 
L 409 0 
z
" transform="scale(0.015625)"/>
       <path id="ArialMT-75" d="M 2597 0 
L 2597 488 
Q 2209 -75 1544 -75 
Q 1250 -75 995 37 
Q 741 150 617 320 
Q 494 491 444 738 
Q 409 903 409 1263 
L 409 3319 
L 972 3319 
L 972 1478 
Q 972 1038 1006 884 
Q 1059 663 1231 536 
Q 1403 409 1656 409 
Q 1909 409 2131 539 
Q 2353 669 2445 892 
Q 2538 1116 2538 1541 
L 2538 3319 
L 3100 3319 
L 3100 0 
L 2597 0 
z
" transform="scale(0.015625)"/>
       <path id="ArialMT-65" d="M 2694 1069 
L 3275 997 
Q 3138 488 2766 206 
Q 2394 -75 1816 -75 
Q 1088 -75 661 373 
Q 234 822 234 1631 
Q 234 2469 665 2931 
Q 1097 3394 1784 3394 
Q 2450 3394 2872 2941 
Q 3294 2488 3294 1666 
Q 3294 1616 3291 1516 
L 816 1516 
Q 847 969 1125 678 
Q 1403 388 1819 388 
Q 2128 388 2347 550 
Q 2566 713 2694 1069 
z
M 847 1978 
L 2700 1978 
Q 2663 2397 2488 2606 
Q 2219 2931 1791 2931 
Q 1403 2931 1139 2672 
Q 875 2413 847 1978 
z
" transform="scale(0.015625)"/>
       <path id="ArialMT-73" d="M 197 991 
L 753 1078 
Q 800 744 1014 566 
Q 1228 388 1613 388 
Q 2000 388 2187 545 
Q 2375 703 2375 916 
Q 2375 1106 2209 1216 
Q 2094 1291 1634 1406 
Q 1016 1563 777 1677 
Q 538 1791 414 1992 
Q 291 2194 291 2438 
Q 291 2659 392 2848 
Q 494 3038 669 3163 
Q 800 3259 1026 3326 
Q 1253 3394 1513 3394 
Q 1903 3394 2198 3281 
Q 2494 3169 2634 2976 
Q 2775 2784 2828 2463 
L 2278 2388 
Q 2241 2644 2061 2787 
Q 1881 2931 1553 2931 
Q 1166 2931 1000 2803 
Q 834 2675 834 2503 
Q 834 2394 903 2306 
Q 972 2216 1119 2156 
Q 1203 2125 1616 2013 
Q 2213 1853 2448 1751 
Q 2684 1650 2818 1456 
Q 2953 1263 2953 975 
Q 2953 694 2789 445 
Q 2625 197 2315 61 
Q 2006 -75 1616 -75 
Q 969 -75 630 194 
Q 291 463 197 991 
z
" transform="scale(0.015625)"/>
      </defs>
      <use xlink:href="#ArialMT-53"/>
      <use xlink:href="#ArialMT-48" x="66.699219"/>
      <use xlink:href="#ArialMT-41" x="138.916016"/>
      <use xlink:href="#ArialMT-50" x="205.615234"/>
      <use xlink:href="#ArialMT-20" x="270.564453"/>
      <use xlink:href="#ArialMT-56" x="298.347656"/>
      <use xlink:href="#ArialMT-61" x="357.671875"/>
      <use xlink:href="#ArialMT-6c" x="413.287109"/>
      <use xlink:href="#ArialMT-75" x="435.503906"/>
      <use xlink:href="#ArialMT-65" x="491.119141"/>
      <use xlink:href="#ArialMT-73" x="546.734375"/>
     </g>
    </g>
   </g>
   <g id="matplotlib.axis_2"/>
   <g id="patch_13">
    <path d="M 102.414782 291.04 
L 102.414782 73.464 
" style="fill: none; stroke: #000000; stroke-width: 0.8; stroke-linejoin: miter; stroke-linecap: square"/>
   </g>
   <g id="patch_14">
    <path d="M 102.414782 291.04 
L 444.6 291.04 
" style="fill: none; stroke: #000000; stroke-width: 0.8; stroke-linejoin: miter; stroke-linecap: square"/>
   </g>
   <g id="text_8">
    <!-- SBS4: 0.05 -->
    <g transform="translate(36.308204 275.662017) scale(0.1 -0.1)">
     <defs>
      <path id="ArialMT-42" d="M 469 0 
L 469 4581 
L 2188 4581 
Q 2713 4581 3030 4442 
Q 3347 4303 3526 4014 
Q 3706 3725 3706 3409 
Q 3706 3116 3547 2856 
Q 3388 2597 3066 2438 
Q 3481 2316 3704 2022 
Q 3928 1728 3928 1328 
Q 3928 1006 3792 729 
Q 3656 453 3456 303 
Q 3256 153 2954 76 
Q 2653 0 2216 0 
L 469 0 
z
M 1075 2656 
L 2066 2656 
Q 2469 2656 2644 2709 
Q 2875 2778 2992 2937 
Q 3109 3097 3109 3338 
Q 3109 3566 3000 3739 
Q 2891 3913 2687 3977 
Q 2484 4041 1991 4041 
L 1075 4041 
L 1075 2656 
z
M 1075 541 
L 2216 541 
Q 2509 541 2628 563 
Q 2838 600 2978 687 
Q 3119 775 3209 942 
Q 3300 1109 3300 1328 
Q 3300 1584 3169 1773 
Q 3038 1963 2805 2039 
Q 2572 2116 2134 2116 
L 1075 2116 
L 1075 541 
z
" transform="scale(0.015625)"/>
      <path id="ArialMT-34" d="M 2069 0 
L 2069 1097 
L 81 1097 
L 81 1613 
L 2172 4581 
L 2631 4581 
L 2631 1613 
L 3250 1613 
L 3250 1097 
L 2631 1097 
L 2631 0 
L 2069 0 
z
M 2069 1613 
L 2069 3678 
L 634 1613 
L 2069 1613 
z
" transform="scale(0.015625)"/>
      <path id="ArialMT-3a" d="M 578 2678 
L 578 3319 
L 1219 3319 
L 1219 2678 
L 578 2678 
z
M 578 0 
L 578 641 
L 1219 641 
L 1219 0 
L 578 0 
z
" transform="scale(0.015625)"/>
     </defs>
     <use xlink:href="#ArialMT-53"/>
     <use xlink:href="#ArialMT-42" x="66.699219"/>
     <use xlink:href="#ArialMT-53" x="133.398438"/>
     <use xlink:href="#ArialMT-34" x="200.097656"/>
     <use xlink:href="#ArialMT-3a" x="255.712891"/>
     <use xlink:href="#ArialMT-20" x="283.496094"/>
     <use xlink:href="#ArialMT-30" x="311.279297"/>
     <use xlink:href="#ArialMT-2e" x="366.894531"/>
     <use xlink:href="#ArialMT-30" x="394.677734"/>
     <use xlink:href="#ArialMT-35" x="450.292969"/>
    </g>
   </g>
   <g id="text_9">
    <!-- Sex: Male -->
    <g transform="translate(42.436329 255.478715) scale(0.1 -0.1)">
     <defs>
      <path id="ArialMT-78" d="M 47 0 
L 1259 1725 
L 138 3319 
L 841 3319 
L 1350 2541 
Q 1494 2319 1581 2169 
Q 1719 2375 1834 2534 
L 2394 3319 
L 3066 3319 
L 1919 1756 
L 3153 0 
L 2463 0 
L 1781 1031 
L 1600 1309 
L 728 0 
L 47 0 
z
" transform="scale(0.015625)"/>
      <path id="ArialMT-4d" d="M 475 0 
L 475 4581 
L 1388 4581 
L 2472 1338 
Q 2622 884 2691 659 
Q 2769 909 2934 1394 
L 4031 4581 
L 4847 4581 
L 4847 0 
L 4263 0 
L 4263 3834 
L 2931 0 
L 2384 0 
L 1059 3900 
L 1059 0 
L 475 0 
z
" transform="scale(0.015625)"/>
     </defs>
     <use xlink:href="#ArialMT-53"/>
     <use xlink:href="#ArialMT-65" x="66.699219"/>
     <use xlink:href="#ArialMT-78" x="122.314453"/>
     <use xlink:href="#ArialMT-3a" x="172.314453"/>
     <use xlink:href="#ArialMT-20" x="200.097656"/>
     <use xlink:href="#ArialMT-4d" x="227.880859"/>
     <use xlink:href="#ArialMT-61" x="311.181641"/>
     <use xlink:href="#ArialMT-6c" x="366.796875"/>
     <use xlink:href="#ArialMT-65" x="389.013672"/>
    </g>
   </g>
   <g id="text_10">
    <!-- NKX2-1 CNA: 0 -->
    <g transform="translate(16.873829 235.295412) scale(0.1 -0.1)">
     <defs>
      <path id="ArialMT-4e" d="M 488 0 
L 488 4581 
L 1109 4581 
L 3516 984 
L 3516 4581 
L 4097 4581 
L 4097 0 
L 3475 0 
L 1069 3600 
L 1069 0 
L 488 0 
z
" transform="scale(0.015625)"/>
      <path id="ArialMT-4b" d="M 469 0 
L 469 4581 
L 1075 4581 
L 1075 2309 
L 3350 4581 
L 4172 4581 
L 2250 2725 
L 4256 0 
L 3456 0 
L 1825 2319 
L 1075 1588 
L 1075 0 
L 469 0 
z
" transform="scale(0.015625)"/>
      <path id="ArialMT-58" d="M 28 0 
L 1800 2388 
L 238 4581 
L 959 4581 
L 1791 3406 
Q 2050 3041 2159 2844 
Q 2313 3094 2522 3366 
L 3444 4581 
L 4103 4581 
L 2494 2422 
L 4228 0 
L 3478 0 
L 2325 1634 
Q 2228 1775 2125 1941 
Q 1972 1691 1906 1597 
L 756 0 
L 28 0 
z
" transform="scale(0.015625)"/>
      <path id="ArialMT-2d" d="M 203 1375 
L 203 1941 
L 1931 1941 
L 1931 1375 
L 203 1375 
z
" transform="scale(0.015625)"/>
      <path id="ArialMT-43" d="M 3763 1606 
L 4369 1453 
Q 4178 706 3683 314 
Q 3188 -78 2472 -78 
Q 1731 -78 1267 223 
Q 803 525 561 1097 
Q 319 1669 319 2325 
Q 319 3041 592 3573 
Q 866 4106 1370 4382 
Q 1875 4659 2481 4659 
Q 3169 4659 3637 4309 
Q 4106 3959 4291 3325 
L 3694 3184 
Q 3534 3684 3231 3912 
Q 2928 4141 2469 4141 
Q 1941 4141 1586 3887 
Q 1231 3634 1087 3207 
Q 944 2781 944 2328 
Q 944 1744 1114 1308 
Q 1284 872 1643 656 
Q 2003 441 2422 441 
Q 2931 441 3284 734 
Q 3638 1028 3763 1606 
z
" transform="scale(0.015625)"/>
     </defs>
     <use xlink:href="#ArialMT-4e"/>
     <use xlink:href="#ArialMT-4b" x="72.216797"/>
     <use xlink:href="#ArialMT-58" x="138.916016"/>
     <use xlink:href="#ArialMT-32" x="205.615234"/>
     <use xlink:href="#ArialMT-2d" x="261.230469"/>
     <use xlink:href="#ArialMT-31" x="294.53125"/>
     <use xlink:href="#ArialMT-20" x="350.146484"/>
     <use xlink:href="#ArialMT-43" x="377.929688"/>
     <use xlink:href="#ArialMT-4e" x="450.146484"/>
     <use xlink:href="#ArialMT-41" x="522.363281"/>
     <use xlink:href="#ArialMT-3a" x="589.0625"/>
     <use xlink:href="#ArialMT-20" x="616.845703"/>
     <use xlink:href="#ArialMT-30" x="644.628906"/>
    </g>
   </g>
   <g id="text_11">
    <!-- TERT CNA: 0 -->
    <g transform="translate(26.130079 215.11211) scale(0.1 -0.1)">
     <defs>
      <path id="ArialMT-54" d="M 1659 0 
L 1659 4041 
L 150 4041 
L 150 4581 
L 3781 4581 
L 3781 4041 
L 2266 4041 
L 2266 0 
L 1659 0 
z
" transform="scale(0.015625)"/>
      <path id="ArialMT-45" d="M 506 0 
L 506 4581 
L 3819 4581 
L 3819 4041 
L 1113 4041 
L 1113 2638 
L 3647 2638 
L 3647 2100 
L 1113 2100 
L 1113 541 
L 3925 541 
L 3925 0 
L 506 0 
z
" transform="scale(0.015625)"/>
      <path id="ArialMT-52" d="M 503 0 
L 503 4581 
L 2534 4581 
Q 3147 4581 3465 4457 
Q 3784 4334 3975 4021 
Q 4166 3709 4166 3331 
Q 4166 2844 3850 2509 
Q 3534 2175 2875 2084 
Q 3116 1969 3241 1856 
Q 3506 1613 3744 1247 
L 4541 0 
L 3778 0 
L 3172 953 
Q 2906 1366 2734 1584 
Q 2563 1803 2427 1890 
Q 2291 1978 2150 2013 
Q 2047 2034 1813 2034 
L 1109 2034 
L 1109 0 
L 503 0 
z
M 1109 2559 
L 2413 2559 
Q 2828 2559 3062 2645 
Q 3297 2731 3419 2920 
Q 3541 3109 3541 3331 
Q 3541 3656 3305 3865 
Q 3069 4075 2559 4075 
L 1109 4075 
L 1109 2559 
z
" transform="scale(0.015625)"/>
     </defs>
     <use xlink:href="#ArialMT-54"/>
     <use xlink:href="#ArialMT-45" x="61.083984"/>
     <use xlink:href="#ArialMT-52" x="127.783203"/>
     <use xlink:href="#ArialMT-54" x="198.25"/>
     <use xlink:href="#ArialMT-20" x="257.583984"/>
     <use xlink:href="#ArialMT-43" x="285.367188"/>
     <use xlink:href="#ArialMT-4e" x="357.583984"/>
     <use xlink:href="#ArialMT-41" x="429.800781"/>
     <use xlink:href="#ArialMT-3a" x="496.5"/>
     <use xlink:href="#ArialMT-20" x="524.283203"/>
     <use xlink:href="#ArialMT-30" x="552.066406"/>
    </g>
   </g>
   <g id="text_12">
    <!-- KRAS: 0 -->
    <g transform="translate(48.547267 194.928807) scale(0.1 -0.1)">
     <use xlink:href="#ArialMT-4b"/>
     <use xlink:href="#ArialMT-52" x="66.699219"/>
     <use xlink:href="#ArialMT-41" x="138.916016"/>
     <use xlink:href="#ArialMT-53" x="205.615234"/>
     <use xlink:href="#ArialMT-3a" x="272.314453"/>
     <use xlink:href="#ArialMT-20" x="300.097656"/>
     <use xlink:href="#ArialMT-30" x="327.880859"/>
    </g>
   </g>
   <g id="text_13">
    <!-- PTEN CNA: 0 -->
    <g transform="translate(25.217579 174.745505) scale(0.1 -0.1)">
     <use xlink:href="#ArialMT-50"/>
     <use xlink:href="#ArialMT-54" x="66.699219"/>
     <use xlink:href="#ArialMT-45" x="127.783203"/>
     <use xlink:href="#ArialMT-4e" x="194.482422"/>
     <use xlink:href="#ArialMT-20" x="266.699219"/>
     <use xlink:href="#ArialMT-43" x="294.482422"/>
     <use xlink:href="#ArialMT-4e" x="366.699219"/>
     <use xlink:href="#ArialMT-41" x="438.916016"/>
     <use xlink:href="#ArialMT-3a" x="505.615234"/>
     <use xlink:href="#ArialMT-20" x="533.398438"/>
     <use xlink:href="#ArialMT-30" x="561.181641"/>
    </g>
   </g>
   <g id="text_14">
    <!-- SBS1: 0.00 -->
    <g transform="translate(36.308204 154.562203) scale(0.1 -0.1)">
     <use xlink:href="#ArialMT-53"/>
     <use xlink:href="#ArialMT-42" x="66.699219"/>
     <use xlink:href="#ArialMT-53" x="133.398438"/>
     <use xlink:href="#ArialMT-31" x="200.097656"/>
     <use xlink:href="#ArialMT-3a" x="255.712891"/>
     <use xlink:href="#ArialMT-20" x="283.496094"/>
     <use xlink:href="#ArialMT-30" x="311.279297"/>
     <use xlink:href="#ArialMT-2e" x="366.894531"/>
     <use xlink:href="#ArialMT-30" x="394.677734"/>
     <use xlink:href="#ArialMT-30" x="450.292969"/>
    </g>
   </g>
   <g id="text_15">
    <!-- Age: 71 -->
    <g transform="translate(52.426954 134.33515) scale(0.1 -0.1)">
     <defs>
      <path id="ArialMT-67" d="M 319 -275 
L 866 -356 
Q 900 -609 1056 -725 
Q 1266 -881 1628 -881 
Q 2019 -881 2231 -725 
Q 2444 -569 2519 -288 
Q 2563 -116 2559 434 
Q 2191 0 1641 0 
Q 956 0 581 494 
Q 206 988 206 1678 
Q 206 2153 378 2554 
Q 550 2956 876 3175 
Q 1203 3394 1644 3394 
Q 2231 3394 2613 2919 
L 2613 3319 
L 3131 3319 
L 3131 450 
Q 3131 -325 2973 -648 
Q 2816 -972 2473 -1159 
Q 2131 -1347 1631 -1347 
Q 1038 -1347 672 -1080 
Q 306 -813 319 -275 
z
M 784 1719 
Q 784 1066 1043 766 
Q 1303 466 1694 466 
Q 2081 466 2343 764 
Q 2606 1063 2606 1700 
Q 2606 2309 2336 2618 
Q 2066 2928 1684 2928 
Q 1309 2928 1046 2623 
Q 784 2319 784 1719 
z
" transform="scale(0.015625)"/>
      <path id="ArialMT-37" d="M 303 3981 
L 303 4522 
L 3269 4522 
L 3269 4084 
Q 2831 3619 2401 2847 
Q 1972 2075 1738 1259 
Q 1569 684 1522 0 
L 944 0 
Q 953 541 1156 1306 
Q 1359 2072 1739 2783 
Q 2119 3494 2547 3981 
L 303 3981 
z
" transform="scale(0.015625)"/>
     </defs>
     <use xlink:href="#ArialMT-41"/>
     <use xlink:href="#ArialMT-67" x="66.699219"/>
     <use xlink:href="#ArialMT-65" x="122.314453"/>
     <use xlink:href="#ArialMT-3a" x="177.929688"/>
     <use xlink:href="#ArialMT-20" x="205.712891"/>
     <use xlink:href="#ArialMT-37" x="233.496094"/>
     <use xlink:href="#ArialMT-31" x="289.111328"/>
    </g>
   </g>
   <g id="text_16">
    <!-- EGFR CNA: 2 -->
    <g transform="translate(24.109767 114.195598) scale(0.1 -0.1)">
     <defs>
      <path id="ArialMT-47" d="M 2638 1797 
L 2638 2334 
L 4578 2338 
L 4578 638 
Q 4131 281 3656 101 
Q 3181 -78 2681 -78 
Q 2006 -78 1454 211 
Q 903 500 622 1047 
Q 341 1594 341 2269 
Q 341 2938 620 3517 
Q 900 4097 1425 4378 
Q 1950 4659 2634 4659 
Q 3131 4659 3532 4498 
Q 3934 4338 4162 4050 
Q 4391 3763 4509 3300 
L 3963 3150 
Q 3859 3500 3706 3700 
Q 3553 3900 3268 4020 
Q 2984 4141 2638 4141 
Q 2222 4141 1919 4014 
Q 1616 3888 1430 3681 
Q 1244 3475 1141 3228 
Q 966 2803 966 2306 
Q 966 1694 1177 1281 
Q 1388 869 1791 669 
Q 2194 469 2647 469 
Q 3041 469 3416 620 
Q 3791 772 3984 944 
L 3984 1797 
L 2638 1797 
z
" transform="scale(0.015625)"/>
      <path id="ArialMT-46" d="M 525 0 
L 525 4581 
L 3616 4581 
L 3616 4041 
L 1131 4041 
L 1131 2622 
L 3281 2622 
L 3281 2081 
L 1131 2081 
L 1131 0 
L 525 0 
z
" transform="scale(0.015625)"/>
     </defs>
     <use xlink:href="#ArialMT-45"/>
     <use xlink:href="#ArialMT-47" x="66.699219"/>
     <use xlink:href="#ArialMT-46" x="144.482422"/>
     <use xlink:href="#ArialMT-52" x="205.566406"/>
     <use xlink:href="#ArialMT-20" x="277.783203"/>
     <use xlink:href="#ArialMT-43" x="305.566406"/>
     <use xlink:href="#ArialMT-4e" x="377.783203"/>
     <use xlink:href="#ArialMT-41" x="450"/>
     <use xlink:href="#ArialMT-3a" x="516.699219"/>
     <use xlink:href="#ArialMT-20" x="544.482422"/>
     <use xlink:href="#ArialMT-32" x="572.265625"/>
    </g>
   </g>
   <g id="text_17">
    <!-- EGFR: 1 -->
    <g transform="translate(48.001954 94.012295) scale(0.1 -0.1)">
     <use xlink:href="#ArialMT-45"/>
     <use xlink:href="#ArialMT-47" x="66.699219"/>
     <use xlink:href="#ArialMT-46" x="144.482422"/>
     <use xlink:href="#ArialMT-52" x="205.566406"/>
     <use xlink:href="#ArialMT-3a" x="277.783203"/>
     <use xlink:href="#ArialMT-20" x="305.566406"/>
     <use xlink:href="#ArialMT-31" x="333.349609"/>
    </g>
   </g>
   <g id="text_18">
    <!-- feature: value -->
    <g transform="translate(26.306642 73.828993) scale(0.1 -0.1)">
     <defs>
      <path id="ArialMT-66" d="M 556 0 
L 556 2881 
L 59 2881 
L 59 3319 
L 556 3319 
L 556 3672 
Q 556 4006 616 4169 
Q 697 4388 901 4523 
Q 1106 4659 1475 4659 
Q 1713 4659 2000 4603 
L 1916 4113 
Q 1741 4144 1584 4144 
Q 1328 4144 1222 4034 
Q 1116 3925 1116 3625 
L 1116 3319 
L 1763 3319 
L 1763 2881 
L 1116 2881 
L 1116 0 
L 556 0 
z
" transform="scale(0.015625)"/>
      <path id="ArialMT-74" d="M 1650 503 
L 1731 6 
Q 1494 -44 1306 -44 
Q 1000 -44 831 53 
Q 663 150 594 308 
Q 525 466 525 972 
L 525 2881 
L 113 2881 
L 113 3319 
L 525 3319 
L 525 4141 
L 1084 4478 
L 1084 3319 
L 1650 3319 
L 1650 2881 
L 1084 2881 
L 1084 941 
Q 1084 700 1114 631 
Q 1144 563 1211 522 
Q 1278 481 1403 481 
Q 1497 481 1650 503 
z
" transform="scale(0.015625)"/>
      <path id="ArialMT-72" d="M 416 0 
L 416 3319 
L 922 3319 
L 922 2816 
Q 1116 3169 1280 3281 
Q 1444 3394 1641 3394 
Q 1925 3394 2219 3213 
L 2025 2691 
Q 1819 2813 1613 2813 
Q 1428 2813 1281 2702 
Q 1134 2591 1072 2394 
Q 978 2094 978 1738 
L 978 0 
L 416 0 
z
" transform="scale(0.015625)"/>
      <path id="ArialMT-76" d="M 1344 0 
L 81 3319 
L 675 3319 
L 1388 1331 
Q 1503 1009 1600 663 
Q 1675 925 1809 1294 
L 2547 3319 
L 3125 3319 
L 1869 0 
L 1344 0 
z
" transform="scale(0.015625)"/>
     </defs>
     <use xlink:href="#ArialMT-66"/>
     <use xlink:href="#ArialMT-65" x="27.783203"/>
     <use xlink:href="#ArialMT-61" x="83.398438"/>
     <use xlink:href="#ArialMT-74" x="139.013672"/>
     <use xlink:href="#ArialMT-75" x="166.796875"/>
     <use xlink:href="#ArialMT-72" x="222.412109"/>
     <use xlink:href="#ArialMT-65" x="255.712891"/>
     <use xlink:href="#ArialMT-3a" x="311.328125"/>
     <use xlink:href="#ArialMT-20" x="339.111328"/>
     <use xlink:href="#ArialMT-76" x="366.894531"/>
     <use xlink:href="#ArialMT-61" x="416.894531"/>
     <use xlink:href="#ArialMT-6c" x="472.509766"/>
     <use xlink:href="#ArialMT-75" x="494.726562"/>
     <use xlink:href="#ArialMT-65" x="550.341797"/>
    </g>
   </g>
   <g id="text_19">
    <!-- SAMPLE_ID: GENIE-S-002 -->
    <g transform="translate(162.96911 28.848937) scale(0.18 -0.18)">
     <defs>
      <path id="ArialMT-4c" d="M 469 0 
L 469 4581 
L 1075 4581 
L 1075 541 
L 3331 541 
L 3331 0 
L 469 0 
z
" transform="scale(0.015625)"/>
      <path id="ArialMT-5f" d="M -97 -1272 
L -97 -866 
L 3631 -866 
L 3631 -1272 
L -97 -1272 
z
" transform="scale(0.015625)"/>
      <path id="ArialMT-49" d="M 597 0 
L 597 4581 
L 1203 4581 
L 1203 0 
L 597 0 
z
" transform="scale(0.015625)"/>
      <path id="ArialMT-44" d="M 494 0 
L 494 4581 
L 2072 4581 
Q 2606 4581 2888 4516 
Q 3281 4425 3559 4188 
Q 3922 3881 4101 3404 
Q 4281 2928 4281 2316 
Q 4281 1794 4159 1391 
Q 4038 988 3847 723 
Q 3656 459 3429 307 
Q 3203 156 2883 78 
Q 2563 0 2147 0 
L 494 0 
z
M 1100 541 
L 2078 541 
Q 2531 541 2789 625 
Q 3047 709 3200 863 
Q 3416 1078 3536 1442 
Q 3656 1806 3656 2325 
Q 3656 3044 3420 3430 
Q 3184 3816 2847 3947 
Q 2603 4041 2063 4041 
L 1100 4041 
L 1100 541 
z
" transform="scale(0.015625)"/>
     </defs>
     <use xlink:href="#ArialMT-53"/>
     <use xlink:href="#ArialMT-41" x="66.699219"/>
     <use xlink:href="#ArialMT-4d" x="133.398438"/>
     <use xlink:href="#ArialMT-50" x="216.699219"/>
     <use xlink:href="#ArialMT-4c" x="283.398438"/>
     <use xlink:href="#ArialMT-45" x="339.013672"/>
     <use xlink:href="#ArialMT-5f" x="405.712891"/>
     <use xlink:href="#ArialMT-49" x="461.328125"/>
     <use xlink:href="#ArialMT-44" x="489.111328"/>
     <use xlink:href="#ArialMT-3a" x="561.328125"/>
     <use xlink:href="#ArialMT-20" x="589.111328"/>
     <use xlink:href="#ArialMT-47" x="616.894531"/>
     <use xlink:href="#ArialMT-45" x="694.677734"/>
     <use xlink:href="#ArialMT-4e" x="761.376953"/>
     <use xlink:href="#ArialMT-49" x="833.59375"/>
     <use xlink:href="#ArialMT-45" x="861.376953"/>
     <use xlink:href="#ArialMT-2d" x="928.076172"/>
     <use xlink:href="#ArialMT-53" x="961.376953"/>
     <use xlink:href="#ArialMT-2d" x="1028.076172"/>
     <use xlink:href="#ArialMT-30" x="1061.376953"/>
     <use xlink:href="#ArialMT-30" x="1116.992188"/>
     <use xlink:href="#ArialMT-32" x="1172.607422"/>
    </g>
    <!-- Prediction: Non-Small Cell Lung Cancer -->
    <g transform="translate(114.442235 48.150562) scale(0.18 -0.18)">
     <defs>
      <path id="ArialMT-64" d="M 2575 0 
L 2575 419 
Q 2259 -75 1647 -75 
Q 1250 -75 917 144 
Q 584 363 401 755 
Q 219 1147 219 1656 
Q 219 2153 384 2558 
Q 550 2963 881 3178 
Q 1213 3394 1622 3394 
Q 1922 3394 2156 3267 
Q 2391 3141 2538 2938 
L 2538 4581 
L 3097 4581 
L 3097 0 
L 2575 0 
z
M 797 1656 
Q 797 1019 1065 703 
Q 1334 388 1700 388 
Q 2069 388 2326 689 
Q 2584 991 2584 1609 
Q 2584 2291 2321 2609 
Q 2059 2928 1675 2928 
Q 1300 2928 1048 2622 
Q 797 2316 797 1656 
z
" transform="scale(0.015625)"/>
      <path id="ArialMT-69" d="M 425 3934 
L 425 4581 
L 988 4581 
L 988 3934 
L 425 3934 
z
M 425 0 
L 425 3319 
L 988 3319 
L 988 0 
L 425 0 
z
" transform="scale(0.015625)"/>
      <path id="ArialMT-63" d="M 2588 1216 
L 3141 1144 
Q 3050 572 2676 248 
Q 2303 -75 1759 -75 
Q 1078 -75 664 370 
Q 250 816 250 1647 
Q 250 2184 428 2587 
Q 606 2991 970 3192 
Q 1334 3394 1763 3394 
Q 2303 3394 2647 3120 
Q 2991 2847 3088 2344 
L 2541 2259 
Q 2463 2594 2264 2762 
Q 2066 2931 1784 2931 
Q 1359 2931 1093 2626 
Q 828 2322 828 1663 
Q 828 994 1084 691 
Q 1341 388 1753 388 
Q 2084 388 2306 591 
Q 2528 794 2588 1216 
z
" transform="scale(0.015625)"/>
      <path id="ArialMT-6f" d="M 213 1659 
Q 213 2581 725 3025 
Q 1153 3394 1769 3394 
Q 2453 3394 2887 2945 
Q 3322 2497 3322 1706 
Q 3322 1066 3130 698 
Q 2938 331 2570 128 
Q 2203 -75 1769 -75 
Q 1072 -75 642 372 
Q 213 819 213 1659 
z
M 791 1659 
Q 791 1022 1069 705 
Q 1347 388 1769 388 
Q 2188 388 2466 706 
Q 2744 1025 2744 1678 
Q 2744 2294 2464 2611 
Q 2184 2928 1769 2928 
Q 1347 2928 1069 2612 
Q 791 2297 791 1659 
z
" transform="scale(0.015625)"/>
      <path id="ArialMT-6e" d="M 422 0 
L 422 3319 
L 928 3319 
L 928 2847 
Q 1294 3394 1984 3394 
Q 2284 3394 2536 3286 
Q 2788 3178 2913 3003 
Q 3038 2828 3088 2588 
Q 3119 2431 3119 2041 
L 3119 0 
L 2556 0 
L 2556 2019 
Q 2556 2363 2490 2533 
Q 2425 2703 2258 2804 
Q 2091 2906 1866 2906 
Q 1506 2906 1245 2678 
Q 984 2450 984 1813 
L 984 0 
L 422 0 
z
" transform="scale(0.015625)"/>
      <path id="ArialMT-6d" d="M 422 0 
L 422 3319 
L 925 3319 
L 925 2853 
Q 1081 3097 1340 3245 
Q 1600 3394 1931 3394 
Q 2300 3394 2536 3241 
Q 2772 3088 2869 2813 
Q 3263 3394 3894 3394 
Q 4388 3394 4653 3120 
Q 4919 2847 4919 2278 
L 4919 0 
L 4359 0 
L 4359 2091 
Q 4359 2428 4304 2576 
Q 4250 2725 4106 2815 
Q 3963 2906 3769 2906 
Q 3419 2906 3187 2673 
Q 2956 2441 2956 1928 
L 2956 0 
L 2394 0 
L 2394 2156 
Q 2394 2531 2256 2718 
Q 2119 2906 1806 2906 
Q 1569 2906 1367 2781 
Q 1166 2656 1075 2415 
Q 984 2175 984 1722 
L 984 0 
L 422 0 
z
" transform="scale(0.015625)"/>
     </defs>
     <use xlink:href="#ArialMT-50"/>
     <use xlink:href="#ArialMT-72" x="66.699219"/>
     <use xlink:href="#ArialMT-65" x="100"/>
     <use xlink:href="#ArialMT-64" x="155.615234"/>
     <use xlink:href="#ArialMT-69" x="211.230469"/>
     <use xlink:href="#ArialMT-63" x="233.447266"/>
     <use xlink:href="#ArialMT-74" x="283.447266"/>
     <use xlink:href="#ArialMT-69" x="311.230469"/>
     <use xlink:href="#ArialMT-6f" x="333.447266"/>
     <use xlink:href="#ArialMT-6e" x="389.0625"/>
     <use xlink:href="#ArialMT-3a" x="444.677734"/>
     <use xlink:href="#ArialMT-20" x="472.460938"/>
     <use xlink:href="#ArialMT-4e" x="500.244141"/>
     <use xlink:href="#ArialMT-6f" x="572.460938"/>
     <use xlink:href="#ArialMT-6e" x="628.076172"/>
     <use xlink:href="#ArialMT-2d" x="683.691406"/>
     <use xlink:href="#ArialMT-53" x="716.992188"/>
     <use xlink:href="#ArialMT-6d" x="783.691406"/>
     <use xlink:href="#ArialMT-61" x="866.992188"/>
     <use xlink:href="#ArialMT-6c" x="922.607422"/>
     <use xlink:href="#ArialMT-6c" x="944.824219"/>
     <use xlink:href="#ArialMT-20" x="967.041016"/>
     <use xlink:href="#ArialMT-43" x="994.824219"/>
     <use xlink:href="#ArialMT-65" x="1067.041016"/>
     <use xlink:href="#ArialMT-6c" x="1122.65625"/>
     <use xlink:href="#ArialMT-6c" x="1144.873047"/>
     <use xlink:href="#ArialMT-20" x="1167.089844"/>
     <use xlink:href="#ArialMT-4c" x="1194.873047"/>
     <use xlink:href="#ArialMT-75" x="1250.488281"/>
     <use xlink:href="#ArialMT-6e" x="1306.103516"/>
     <use xlink:href="#ArialMT-67" x="1361.71875"/>
     <use xlink:href="#ArialMT-20" x="1417.333984"/>
     <use xlink:href="#ArialMT-43" x="1445.117188"/>
     <use xlink:href="#ArialMT-61" x="1517.333984"/>
     <use xlink:href="#ArialMT-6e" x="1572.949219"/>
     <use xlink:href="#ArialMT-63" x="1628.564453"/>
     <use xlink:href="#ArialMT-65" x="1678.564453"/>
     <use xlink:href="#ArialMT-72" x="1734.179688"/>
    </g>
    <!-- Prediction probability: 0.926 -->
    <g transform="translate(162.447391 67.464) scale(0.18 -0.18)">
     <defs>
      <path id="ArialMT-70" d="M 422 -1272 
L 422 3319 
L 934 3319 
L 934 2888 
Q 1116 3141 1344 3267 
Q 1572 3394 1897 3394 
Q 2322 3394 2647 3175 
Q 2972 2956 3137 2557 
Q 3303 2159 3303 1684 
Q 3303 1175 3120 767 
Q 2938 359 2589 142 
Q 2241 -75 1856 -75 
Q 1575 -75 1351 44 
Q 1128 163 984 344 
L 984 -1272 
L 422 -1272 
z
M 931 1641 
Q 931 1000 1190 694 
Q 1450 388 1819 388 
Q 2194 388 2461 705 
Q 2728 1022 2728 1688 
Q 2728 2322 2467 2637 
Q 2206 2953 1844 2953 
Q 1484 2953 1207 2617 
Q 931 2281 931 1641 
z
" transform="scale(0.015625)"/>
      <path id="ArialMT-62" d="M 941 0 
L 419 0 
L 419 4581 
L 981 4581 
L 981 2947 
Q 1338 3394 1891 3394 
Q 2197 3394 2470 3270 
Q 2744 3147 2920 2923 
Q 3097 2700 3197 2384 
Q 3297 2069 3297 1709 
Q 3297 856 2875 390 
Q 2453 -75 1863 -75 
Q 1275 -75 941 416 
L 941 0 
z
M 934 1684 
Q 934 1088 1097 822 
Q 1363 388 1816 388 
Q 2184 388 2453 708 
Q 2722 1028 2722 1663 
Q 2722 2313 2464 2622 
Q 2206 2931 1841 2931 
Q 1472 2931 1203 2611 
Q 934 2291 934 1684 
z
" transform="scale(0.015625)"/>
      <path id="ArialMT-79" d="M 397 -1278 
L 334 -750 
Q 519 -800 656 -800 
Q 844 -800 956 -737 
Q 1069 -675 1141 -563 
Q 1194 -478 1313 -144 
Q 1328 -97 1363 -6 
L 103 3319 
L 709 3319 
L 1400 1397 
Q 1534 1031 1641 628 
Q 1738 1016 1872 1384 
L 2581 3319 
L 3144 3319 
L 1881 -56 
Q 1678 -603 1566 -809 
Q 1416 -1088 1222 -1217 
Q 1028 -1347 759 -1347 
Q 597 -1347 397 -1278 
z
" transform="scale(0.015625)"/>
      <path id="ArialMT-39" d="M 350 1059 
L 891 1109 
Q 959 728 1153 556 
Q 1347 384 1650 384 
Q 1909 384 2104 503 
Q 2300 622 2425 820 
Q 2550 1019 2634 1356 
Q 2719 1694 2719 2044 
Q 2719 2081 2716 2156 
Q 2547 1888 2255 1720 
Q 1963 1553 1622 1553 
Q 1053 1553 659 1965 
Q 266 2378 266 3053 
Q 266 3750 677 4175 
Q 1088 4600 1706 4600 
Q 2153 4600 2523 4359 
Q 2894 4119 3086 3673 
Q 3278 3228 3278 2384 
Q 3278 1506 3087 986 
Q 2897 466 2520 194 
Q 2144 -78 1638 -78 
Q 1100 -78 759 220 
Q 419 519 350 1059 
z
M 2653 3081 
Q 2653 3566 2395 3850 
Q 2138 4134 1775 4134 
Q 1400 4134 1122 3828 
Q 844 3522 844 3034 
Q 844 2597 1108 2323 
Q 1372 2050 1759 2050 
Q 2150 2050 2401 2323 
Q 2653 2597 2653 3081 
z
" transform="scale(0.015625)"/>
      <path id="ArialMT-36" d="M 3184 3459 
L 2625 3416 
Q 2550 3747 2413 3897 
Q 2184 4138 1850 4138 
Q 1581 4138 1378 3988 
Q 1113 3794 959 3422 
Q 806 3050 800 2363 
Q 1003 2672 1297 2822 
Q 1591 2972 1913 2972 
Q 2475 2972 2870 2558 
Q 3266 2144 3266 1488 
Q 3266 1056 3080 686 
Q 2894 316 2569 119 
Q 2244 -78 1831 -78 
Q 1128 -78 684 439 
Q 241 956 241 2144 
Q 241 3472 731 4075 
Q 1159 4600 1884 4600 
Q 2425 4600 2770 4297 
Q 3116 3994 3184 3459 
z
M 888 1484 
Q 888 1194 1011 928 
Q 1134 663 1356 523 
Q 1578 384 1822 384 
Q 2178 384 2434 671 
Q 2691 959 2691 1453 
Q 2691 1928 2437 2201 
Q 2184 2475 1800 2475 
Q 1419 2475 1153 2201 
Q 888 1928 888 1484 
z
" transform="scale(0.015625)"/>
     </defs>
     <use xlink:href="#ArialMT-50"/>
     <use xlink:href="#ArialMT-72" x="66.699219"/>
     <use xlink:href="#ArialMT-65" x="100"/>
     <use xlink:href="#ArialMT-64" x="155.615234"/>
     <use xlink:href="#ArialMT-69" x="211.230469"/>
     <use xlink:href="#ArialMT-63" x="233.447266"/>
     <use xlink:href="#ArialMT-74" x="283.447266"/>
     <use xlink:href="#ArialMT-69" x="311.230469"/>
     <use xlink:href="#ArialMT-6f" x="333.447266"/>
     <use xlink:href="#ArialMT-6e" x="389.0625"/>
     <use xlink:href="#ArialMT-20" x="444.677734"/>
     <use xlink:href="#ArialMT-70" x="472.460938"/>
     <use xlink:href="#ArialMT-72" x="528.076172"/>
     <use xlink:href="#ArialMT-6f" x="561.376953"/>
     <use xlink:href="#ArialMT-62" x="616.992188"/>
     <use xlink:href="#ArialMT-61" x="672.607422"/>
     <use xlink:href="#ArialMT-62" x="728.222656"/>
     <use xlink:href="#ArialMT-69" x="783.837891"/>
     <use xlink:href="#ArialMT-6c" x="806.054688"/>
     <use xlink:href="#ArialMT-69" x="828.271484"/>
     <use xlink:href="#ArialMT-74" x="850.488281"/>
     <use xlink:href="#ArialMT-79" x="878.271484"/>
     <use xlink:href="#ArialMT-3a" x="928.271484"/>
     <use xlink:href="#ArialMT-20" x="956.054688"/>
     <use xlink:href="#ArialMT-30" x="983.837891"/>
     <use xlink:href="#ArialMT-2e" x="1039.453125"/>
     <use xlink:href="#ArialMT-39" x="1067.236328"/>
     <use xlink:href="#ArialMT-32" x="1122.851562"/>
     <use xlink:href="#ArialMT-36" x="1178.466797"/>
    </g>
   </g>
   <g id="legend_1">
    <g id="patch_15">
     <path d="M 298.558594 283.54 
L 434.1 283.54 
Q 437.1 283.54 437.1 280.54 
L 437.1 175.050156 
Q 437.1 172.050156 434.1 172.050156 
L 298.558594 172.050156 
Q 295.558594 172.050156 295.558594 175.050156 
L 295.558594 280.54 
Q 295.558594 283.54 298.558594 283.54 
z
" style="fill: #ffffff; opacity: 0.8; stroke: #cccccc; stroke-linejoin: miter"/>
    </g>
    <g id="text_20">
     <!-- Feature Groups -->
     <g transform="translate(313.808203 188.969687) scale(0.15 -0.15)">
      <use xlink:href="#ArialMT-46"/>
      <use xlink:href="#ArialMT-65" x="61.083984"/>
      <use xlink:href="#ArialMT-61" x="116.699219"/>
      <use xlink:href="#ArialMT-74" x="172.314453"/>
      <use xlink:href="#ArialMT-75" x="200.097656"/>
      <use xlink:href="#ArialMT-72" x="255.712891"/>
      <use xlink:href="#ArialMT-65" x="289.013672"/>
      <use xlink:href="#ArialMT-20" x="344.628906"/>
      <use xlink:href="#ArialMT-47" x="372.412109"/>
      <use xlink:href="#ArialMT-72" x="450.195312"/>
      <use xlink:href="#ArialMT-6f" x="483.496094"/>
      <use xlink:href="#ArialMT-75" x="539.111328"/>
      <use xlink:href="#ArialMT-70" x="594.726562"/>
      <use xlink:href="#ArialMT-73" x="650.341797"/>
     </g>
    </g>
    <g id="patch_16">
     <path d="M 301.558594 210.187656 
L 331.558594 210.187656 
L 331.558594 199.687656 
L 301.558594 199.687656 
z
" style="fill: #ff0000"/>
    </g>
    <g id="text_21">
     <!-- Somatic Mut. -->
     <g transform="translate(343.558594 210.187656) scale(0.15 -0.15)">
      <use xlink:href="#ArialMT-53"/>
      <use xlink:href="#ArialMT-6f" x="66.699219"/>
      <use xlink:href="#ArialMT-6d" x="122.314453"/>
      <use xlink:href="#ArialMT-61" x="205.615234"/>
      <use xlink:href="#ArialMT-74" x="261.230469"/>
      <use xlink:href="#ArialMT-69" x="289.013672"/>
      <use xlink:href="#ArialMT-63" x="311.230469"/>
      <use xlink:href="#ArialMT-20" x="361.230469"/>
      <use xlink:href="#ArialMT-4d" x="389.013672"/>
      <use xlink:href="#ArialMT-75" x="472.314453"/>
      <use xlink:href="#ArialMT-74" x="527.929688"/>
      <use xlink:href="#ArialMT-2e" x="555.712891"/>
     </g>
    </g>
    <g id="patch_17">
     <path d="M 301.558594 231.405625 
L 331.558594 231.405625 
L 331.558594 220.905625 
L 301.558594 220.905625 
z
" style="fill: #008000"/>
    </g>
    <g id="text_22">
     <!-- CNA events -->
     <g transform="translate(343.558594 231.405625) scale(0.15 -0.15)">
      <use xlink:href="#ArialMT-43"/>
      <use xlink:href="#ArialMT-4e" x="72.216797"/>
      <use xlink:href="#ArialMT-41" x="144.433594"/>
      <use xlink:href="#ArialMT-20" x="205.632812"/>
      <use xlink:href="#ArialMT-65" x="233.416016"/>
      <use xlink:href="#ArialMT-76" x="289.03125"/>
      <use xlink:href="#ArialMT-65" x="339.03125"/>
      <use xlink:href="#ArialMT-6e" x="394.646484"/>
      <use xlink:href="#ArialMT-74" x="450.261719"/>
      <use xlink:href="#ArialMT-73" x="478.044922"/>
     </g>
    </g>
    <g id="patch_18">
     <path d="M 301.558594 252.806406 
L 331.558594 252.806406 
L 331.558594 242.306406 
L 301.558594 242.306406 
z
" style="fill: #0000ff"/>
    </g>
    <g id="text_23">
     <!-- Mutation Sig. -->
     <g transform="translate(343.558594 252.806406) scale(0.15 -0.15)">
      <use xlink:href="#ArialMT-4d"/>
      <use xlink:href="#ArialMT-75" x="83.300781"/>
      <use xlink:href="#ArialMT-74" x="138.916016"/>
      <use xlink:href="#ArialMT-61" x="166.699219"/>
      <use xlink:href="#ArialMT-74" x="222.314453"/>
      <use xlink:href="#ArialMT-69" x="250.097656"/>
      <use xlink:href="#ArialMT-6f" x="272.314453"/>
      <use xlink:href="#ArialMT-6e" x="327.929688"/>
      <use xlink:href="#ArialMT-20" x="383.544922"/>
      <use xlink:href="#ArialMT-53" x="411.328125"/>
      <use xlink:href="#ArialMT-69" x="478.027344"/>
      <use xlink:href="#ArialMT-67" x="500.244141"/>
      <use xlink:href="#ArialMT-2e" x="555.859375"/>
     </g>
    </g>
    <g id="patch_19">
     <path d="M 301.558594 274.382969 
L 331.558594 274.382969 
L 331.558594 263.882969 
L 301.558594 263.882969 
z
" style="fill: #808080"/>
    </g>
    <g id="text_24">
     <!-- Age/Sex -->
     <g transform="translate(343.558594 274.382969) scale(0.15 -0.15)">
      <defs>
       <path id="ArialMT-2f" d="M 0 -78 
L 1328 4659 
L 1778 4659 
L 453 -78 
L 0 -78 
z
" transform="scale(0.015625)"/>
      </defs>
      <use xlink:href="#ArialMT-41"/>
      <use xlink:href="#ArialMT-67" x="66.699219"/>
      <use xlink:href="#ArialMT-65" x="122.314453"/>
      <use xlink:href="#ArialMT-2f" x="177.929688"/>
      <use xlink:href="#ArialMT-53" x="205.712891"/>
      <use xlink:href="#ArialMT-65" x="272.412109"/>
      <use xlink:href="#ArialMT-78" x="328.027344"/>
     </g>
    </g>
   </g>
  </g>
 </g>
 <defs>
  <clipPath id="pfb755cbfd5">
   <rect x="102.414782" y="73.464" width="342.185218" height="217.576"/>
  </clipPath>
 </defs>
</svg>
